<?xml version="1.0" encoding="UTF-8" standalone="no"?>
<!-- Created with Inkscape (http://www.inkscape.org/) -->

<svg
   width="100"
   height="80"
   viewBox="0 0 26.458332 21.166666"
   version="1.1"
   id="svg5"
   inkscape:version="1.2 (dc2aedaf03, 2022-05-15)"
   sodipodi:docname="icon2.svg"
   xmlns:inkscape="http://www.inkscape.org/namespaces/inkscape"
   xmlns:sodipodi="http://sodipodi.sourceforge.net/DTD/sodipodi-0.dtd"
   xmlns="http://www.w3.org/2000/svg"
   xmlns:svg="http://www.w3.org/2000/svg">
  <sodipodi:namedview
     id="namedview7"
     pagecolor="#ffffff"
     bordercolor="#000000"
     borderopacity="0.25"
     inkscape:showpageshadow="2"
     inkscape:pageopacity="0.0"
     inkscape:pagecheckerboard="0"
     inkscape:deskcolor="#d1d1d1"
     inkscape:document-units="px"
     showgrid="false"
     inkscape:zoom="2.587745"
     inkscape:cx="-6.9558632"
     inkscape:cy="51.009664"
     inkscape:window-width="2560"
     inkscape:window-height="1369"
     inkscape:window-x="-8"
     inkscape:window-y="-8"
     inkscape:window-maximized="1"
     inkscape:current-layer="layer1" />
  <defs
     id="defs2" />
  <g
     inkscape:label="Layer 1"
     inkscape:groupmode="layer"
     id="layer1">
    <g
       id="g21026"
       transform="translate(-0.15416452,-1.0547122)">
      <path
         id="path18781"
         style="fill:#151b24;stroke-width:0.61356;stroke-linecap:round"
         d="m 10.686344,7.3996781 a 4.1212,4.1212 0 0 0 -5.6215009,1.538837 4.1212,4.1212 0 0 0 -0.09902,0.189778 4.9752741,4.5270138 29.690819 0 0 -0.114116,0.184023 4.9752741,4.5270138 29.690819 0 0 2.080078,6.3969069 4.9752741,4.5270138 29.690819 0 0 5.5950949,-0.319225 4.9752741,4.5270138 29.690819 0 1 -5.1420346,-0.0068 4.9752741,4.5270138 29.690819 0 1 -1.7383653,-1.577137 4.1212,4.1212 0 0 0 0.957334,0.753741 4.1212,4.1212 0 0 0 5.6213629,-1.538598 4.1212,4.1212 0 0 0 -1.538836,-5.6214999 z" />
      <path
         id="path20296"
         style="fill:#151b24;stroke-width:0.61356;stroke-linecap:round"
         d="m 20.381949,7.3996781 a 4.1212,4.1212 0 0 0 -5.621501,1.538837 4.1212,4.1212 0 0 0 -0.09902,0.189778 4.9752741,4.5270138 29.690819 0 0 -0.114116,0.184023 4.9752741,4.5270138 29.690819 0 0 2.080079,6.3969069 4.9752741,4.5270138 29.690819 0 0 5.595094,-0.319225 4.9752741,4.5270138 29.690819 0 1 -5.142035,-0.0068 4.9752741,4.5270138 29.690819 0 1 -1.738365,-1.577137 4.1212,4.1212 0 0 0 0.957334,0.753741 4.1212,4.1212 0 0 0 5.621364,-1.538598 4.1212,4.1212 0 0 0 -1.538837,-5.6214999 z" />
    </g>
  </g>
</svg>
